
nColumns=19
nRows=48
DataType=double
version=3
OpenSimVersion=4.4-2022-10-11-798caa840
endheader
time	ground_force_calcn_r_vx	ground_force_calcn_r_vy	ground_force_calcn_r_vz	ground_force_calcn_r_px	ground_force_calcn_r_py	ground_force_calcn_r_pz	ground_force_calcn_r_mx	ground_force_calcn_r_my	ground_force_calcn_r_mz	ground_force_calcn_l_vx	ground_force_calcn_l_vy	ground_force_calcn_l_vz	ground_force_calcn_l_px	ground_force_calcn_l_py	ground_force_calcn_l_pz	ground_force_calcn_l_mx	ground_force_calcn_l_my	ground_force_calcn_l_mz
0.01	1.06148	36.2527	3.80105	0.148602	0	-0.20084	0.009911049999999999	0.338493	0.0354905	0	0	0	0	0	0	0	0	0
0.02	-1.81503	58.3645	3.98027	0.165859	0	-0.199962	-0.009996440000000001	0.321447	0.0219217	0	0	0	0	0	0	0	0	0
0.03	-5.81778	85.4815	3.93651	0.176336	0	-0.198991	-0.0218648	0.321263	0.0147945	0	0	0	0	0	0	0	0	0
0.04	-11.1268	117.689	3.57881	0.183834	0	-0.198079	-0.0312396	0.330423	0.0100478	0	0	0	0	0	0	0	0	0
0.05	-17.897	154.73	2.80159	0.189821	0	-0.197221	-0.0399769	0.345622	0.00625795	0	0	0	0	0	0	0	0	0
0.06	-26.1592	195.993	1.49487	0.194992	0	-0.196392	-0.048767	0.365378	0.00278681	0	0	0	0	0	0	0	0	0
0.07000000000000001	-35.6778	240.643	-0.433075	0.199696	0	-0.195569	-0.0577031	0.389202	-0.000700429	0	0	0	0	0	0	0	0	0
0.08	-46.0512	287.618	-3.04489	0.204117	0	-0.194737	-0.06676940000000001	0.417015	-0.00441477	0	0	0	0	0	0	0	0	0
0.09	-56.837	335.584	-6.36557	0.208361	0	-0.193888	-0.0760028	0.448745	-0.00851209	0	0	0	0	0	0	0	0	0
0.1	-67.5697	383.047	-10.3664	0.212491	0	-0.193022	-0.085588	0.485191	-0.0131307	0	0	0	0	0	0	0	0	0
0.11	-77.7921	428.564	-14.9423	0.216536	0	-0.192148	-0.096099	0.5294180000000001	-0.0184586	0	0	0	0	0	0	0	0	0
0.12	-87.0835	470.902	-19.903	0.220498	0	-0.191286	-0.108413	0.586238	-0.0247778	0	0	0	0	0	0	0	0	0
0.13	-95.08929999999999	509.134	-25.0014	0.22437	0	-0.190453	-0.123233	0.659823	-0.0324012	0	0	0	0	0	0	0	0	0
0.14	-101.556	542.696	-29.9786	0.228139	0	-0.189672	-0.140614	0.751416	-0.0415082	0	0	0	0	0	0	0	0	0
0.15	-106.331	571.338	-34.5855	0.231788	0	-0.188955	-0.159948	0.859433	-0.0520251	0	0	0	0	0	0	0	0	0
0.16	-109.345	594.9930000000001	-38.5999	0.235306	0	-0.188316	-0.180099	0.9799949999999999	-0.0635767	0	0	0	0	0	0	0	0	0
0.17	-110.612	613.698	-41.8585	0.238685	0	-0.18776	-0.199418	1.10642	-0.0754654	0	0	0	0	0	0	0	0	0
0.18	-110.215	627.554	-44.2777	0.241929	0	-0.187283	-0.21601	1.22994	-0.0867795	0	0	0	0	0	0	0	0	0
0.19	-108.304	636.716	-45.8551	0.245052	0	-0.186878	-0.228162	1.34135	-0.0966018	0	0	0	0	0	0	0	0	0
0.2	-105.079	641.395	-46.6593	0.248079	0	-0.186529	-0.234651	1.43229	-0.104194	0	0	0	0	0	0	0	0	0
0.21	-100.777	641.872	-46.8076	0.251046	0	-0.18622	-0.234933	1.49634	-0.109118	0	0	0	0	0	0	0	0	0
0.22	-95.6542	638.51	-46.4382	0.253994	0	-0.185936	-0.229161	1.52969	-0.111253	0	0	0	0	0	0	0	0	0
0.23	-89.96420000000001	631.766	-45.6864	0.256963	0	-0.185665	-0.218026	1.53107	-0.11072	0	0	0	0	0	0	0	0	0
0.24	-83.94370000000001	622.197	-44.6676	0.259994	0	-0.185401	-0.202543	1.50126	-0.107776	0	0	0	0	0	0	0	0	0
0.25	-77.80119999999999	610.441	-43.4692	0.263123	0	-0.185144	-0.183832	1.44238	-0.102711	0	0	0	0	0	0	0	0	0
0.26	-71.7118	597.182	-42.1504	0.266374	0	-0.184904	-0.162941	1.3569	-0.0957727	0	0	0	0	0	0	0	0	0
0.27	-65.8122	583.112	-40.7477	0.269763	0	-0.184695	-0.140733	1.24693	-0.08713509999999999	0	0	0	0	0	0	0	0	0
0.28	-60.2007	568.886	-39.2824	0.273297	0	-0.184534	-0.117855	1.11371	-0.0769034	0	0	0	0	0	0	0	0	0
0.29	-54.9378	555.091	-37.7684	0.276967	0	-0.18444	-0.09477389999999999	0.957595	-0.0651548	0	0	0	0	0	0	0	0	0
0.3	-50.0505	542.231	-36.2194	0.280757	0	-0.184434	-0.0718258	0.778137	-0.0519772	0	0	0	0	0	0	0	0	0
0.31	-45.5384	530.713	-34.6514	0.284643	0	-0.184525	-0.0492843	0.574369	-0.0375018	0	0	0	0	0	0	0	0	0
0.32	-41.3795	520.8440000000001	-33.0837	0.288595	0	-0.184722	-0.0274196	0.345131	-0.0219225	0	0	0	0	0	0	0	0	0
0.33	-37.5346	512.842	-31.538	0.292581	0	-0.185026	-0.00653602	0.0893029	-0.00549182	0	0	0	0	0	0	0	0	0
0.34	-33.9512	506.844	-30.0378	0.296563	0	-0.185428	0.0129895	-0.193916	0.0114923	0	0	0	0	0	0	0	0	0
0.35	-30.5669	502.925	-28.6087	0.30051	0	-0.185913	0.0306726	-0.504663	0.0287076	0	0	0	0	0	0	0	0	0
0.36	-27.3133	501.101	-27.2791	0.304395	0	-0.186458	0.0458982	-0.842069	0.0458408	0	0	0	0	0	0	0	0	0
0.37	-24.1186	501.339	-26.0798	0.308192	0	-0.187037	0.0579173	-1.20389	0.062627	0	0	0	0	0	0	0	0	0
0.38	-20.9113	503.567	-25.0426	0.311884	0	-0.187625	0.0658759	-1.58636	0.0788904	0	0	0	0	0	0	0	0	0
0.39	-17.6231	507.685	-24.1974	0.315458	0	-0.188195	0.06888039999999999	-1.98429	0.0945761	0	0	0	0	0	0	0	0	0
0.4	-14.1925	513.568	-23.5689	0.318904	0	-0.188726	0.0660842	-2.39131	0.109743	0	0	0	0	0	0	0	0	0
0.41	-10.5671	521.08	-23.1718	0.322216	0	-0.189205	0.0567843	-2.80014	0.124518	0	0	0	0	0	0	0	0	0
0.42	-6.70493	530.081	-23.0072	0.325395	0	-0.189624	0.0405139	-3.20296	0.139019	0	0	0	0	0	0	0	0	0
0.43	-2.57633	540.419	-23.0609	0.32844	0	-0.189985	0.017123	-3.59178	0.15327	0	0	0	0	0	0	0	0	0
0.44	1.83591	551.9349999999999	-23.3037	0.331349	0	-0.190292	-0.0131677	-3.95864	0.167141	0	0	0	0	0	0	0	0	0
0.45	6.53649	564.4400000000001	-23.6947	0.334125	0	-0.190554	-0.0497475	-4.2958	0.180334	0	0	0	0	0	0	0	0	0
0.46	11.5183	577.696	-24.1859	0.336768	0	-0.190781	-0.09163259999999999	-4.5958	0.192409	0	0	0	0	0	0	0	0	0
0.47	16.7639	591.395	-24.7235	0.339281	0	-0.190981	-0.137526	-4.85164	0.202825	0	0	0	0	0	0	0	0	0
0.48	22.2461	605.143	-25.2469	0.341665	0	-0.191163	-0.185916	-5.05731	0.210994	0	0	0	0	0	0	0	0	0
